<?xml version="1.0" standalone="no"?><!DOCTYPE svg PUBLIC "-//W3C//DTD SVG 1.1//EN" "http://www.w3.org/Graphics/SVG/1.1/DTD/svg11.dtd"><svg t="1690531688861" class="icon" viewBox="0 0 1024 1024" version="1.1" xmlns="http://www.w3.org/2000/svg" p-id="34982" width="200" height="200" xmlns:xlink="http://www.w3.org/1999/xlink"><path d="M613.888 715.264h-41.984C448.512 715.264 348.16 614.912 348.16 491.52s99.84-223.232 223.232-223.232h41.984c123.392 0 223.232 99.84 223.232 223.232 0.512 123.392-99.328 223.744-222.72 223.744z" fill="#a0cfff" opacity=".2" p-id="34983" data-spm-anchor-id="a313x.7781069.0.i7" class="selected"></path><path d="M144.384 540.16c-7.68 0-15.36-3.584-19.968-9.728-8.704-11.264-6.656-27.136 4.608-35.84L520.704 189.44 896 494.592c10.752 8.704 12.8 25.088 3.584 35.84-8.704 10.752-25.088 12.8-35.84 3.584l-343.552-279.552-359.936 280.064c-5.12 3.584-10.24 5.632-15.872 5.632z" fill="#409EFF" p-id="34984" data-spm-anchor-id="a313x.7781069.0.i1" class=""></path><path d="M144.384 816.64c-7.68 0-15.36-3.584-19.968-9.728-8.704-11.264-6.656-27.136 4.608-35.84L520.704 465.92l375.296 305.152c10.752 8.704 12.8 25.088 3.584 35.84-8.704 10.752-25.088 12.8-35.84 3.584l-343.552-279.552-359.936 280.064c-5.12 3.584-10.24 5.632-15.872 5.632z" fill="#79bbff" opacity=".5" p-id="34985" data-spm-anchor-id="a313x.7781069.0.i5" class=""></path></svg>